<?xml version="1.0" encoding="UTF-8" standalone="no"?>
<!DOCTYPE svg PUBLIC "-//W3C//DTD SVG 1.1//EN"
 "http://www.w3.org/Graphics/SVG/1.1/DTD/svg11.dtd">
<!-- Generated by graphviz version 2.40.1 (20161225.0304)
 -->
<!-- Title: G Pages: 1 -->
<svg width="1343pt" height="708pt"
 viewBox="0.00 0.00 1343.39 708.00" xmlns="http://www.w3.org/2000/svg" xmlns:xlink="http://www.w3.org/1999/xlink">
<g id="graph0" class="graph" transform="scale(1 1) rotate(0) translate(4 704)">
<title>G</title>
<polygon fill="#ffffff" stroke="transparent" points="-4,4 -4,-704 1339.3875,-704 1339.3875,4 -4,4"/>
<g id="clust1" class="cluster">
<title>cluster_Global</title>
<path fill="none" stroke="#c0c0c0" d="M208.3875,-44C208.3875,-44 1315.3875,-44 1315.3875,-44 1321.3875,-44 1327.3875,-50 1327.3875,-56 1327.3875,-56 1327.3875,-680 1327.3875,-680 1327.3875,-686 1321.3875,-692 1315.3875,-692 1315.3875,-692 208.3875,-692 208.3875,-692 202.3875,-692 196.3875,-686 196.3875,-680 196.3875,-680 196.3875,-56 196.3875,-56 196.3875,-50 202.3875,-44 208.3875,-44"/>
<text text-anchor="middle" x="761.8875" y="-679.2" font-family="Times,serif" font-size="11.00" fill="#c0c0c0">Global</text>
</g>
<g id="clust2" class="cluster">
<title>cluster_\Healthsvc</title>
<path fill="none" stroke="#c0c0c0" d="M216.3875,-52C216.3875,-52 1307.3875,-52 1307.3875,-52 1313.3875,-52 1319.3875,-58 1319.3875,-64 1319.3875,-64 1319.3875,-652 1319.3875,-652 1319.3875,-658 1313.3875,-664 1307.3875,-664 1307.3875,-664 216.3875,-664 216.3875,-664 210.3875,-664 204.3875,-658 204.3875,-652 204.3875,-652 204.3875,-64 204.3875,-64 204.3875,-58 210.3875,-52 216.3875,-52"/>
<text text-anchor="middle" x="761.8875" y="-651.2" font-family="Times,serif" font-size="11.00" fill="#c0c0c0">Healthsvc</text>
</g>
<!-- \\Healthsvc\\HostSanityRequest -->
<g id="node1" class="node">
<title>\\Healthsvc\\HostSanityRequest</title>
<polygon fill="none" stroke="#000000" points="1257.3875,-636 1126.3875,-636 1126.3875,-600 1257.3875,-600 1257.3875,-636"/>
<text text-anchor="middle" x="1191.8875" y="-615.2" font-family="Courier,monospace" font-size="11.00" fill="#000000">HostSanityRequest</text>
</g>
<!-- \\Healthsvc\\Request -->
<g id="node6" class="node">
<title>\\Healthsvc\\Request</title>
<polygon fill="none" stroke="#000000" points="915.8875,-636 831.8875,-636 831.8875,-600 915.8875,-600 915.8875,-636"/>
<text text-anchor="start" x="839.8875" y="-621.2" font-family="Courier,monospace" font-size="11.00" fill="#000000">«abstract»</text>
<text text-anchor="start" x="849.8875" y="-609.2" font-family="Courier,monospace" font-size="11.00" fill="#000000">Request</text>
</g>
<!-- \\Healthsvc\\HostSanityRequest&#45;&gt;\\Healthsvc\\Request -->
<g id="edge1" class="edge">
<title>\\Healthsvc\\HostSanityRequest&#45;&gt;\\Healthsvc\\Request</title>
<path fill="none" stroke="#000000" d="M1126.3833,-618C1067.1128,-618 980.9589,-618 926.1824,-618"/>
<polygon fill="none" stroke="#000000" points="925.9982,-614.5001 915.9981,-618 925.9981,-621.5001 925.9982,-614.5001"/>
</g>
<!-- \\Healthsvc\\HostSanityResponse -->
<g id="node2" class="node">
<title>\\Healthsvc\\HostSanityResponse</title>
<polygon fill="none" stroke="#000000" points="1260.8875,-528 1122.8875,-528 1122.8875,-492 1260.8875,-492 1260.8875,-528"/>
<text text-anchor="middle" x="1191.8875" y="-507.2" font-family="Courier,monospace" font-size="11.00" fill="#000000">HostSanityResponse</text>
</g>
<!-- \\Healthsvc\\Response -->
<g id="node4" class="node">
<title>\\Healthsvc\\Response</title>
<polygon fill="none" stroke="#000000" points="915.8875,-420 831.8875,-420 831.8875,-384 915.8875,-384 915.8875,-420"/>
<text text-anchor="start" x="839.8875" y="-405.2" font-family="Courier,monospace" font-size="11.00" fill="#000000">«abstract»</text>
<text text-anchor="start" x="846.3875" y="-393.2" font-family="Courier,monospace" font-size="11.00" fill="#000000">Response</text>
</g>
<!-- \\Healthsvc\\HostSanityResponse&#45;&gt;\\Healthsvc\\Response -->
<g id="edge2" class="edge">
<title>\\Healthsvc\\HostSanityResponse&#45;&gt;\\Healthsvc\\Response</title>
<path fill="none" stroke="#000000" d="M1122.6322,-499.5297C1105.733,-495.5832 1088.0269,-490.2267 1072.3875,-483 1036.0767,-466.2214 1036.7978,-445.5618 1000.3875,-429 977.1505,-418.4303 949.6067,-411.9236 926.163,-407.9558"/>
<polygon fill="none" stroke="#000000" points="926.4759,-404.4619 916.0518,-406.3562 925.382,-411.3759 926.4759,-404.4619"/>
</g>
<!-- \\Healthsvc\\InfoItem -->
<g id="node3" class="node">
<title>\\Healthsvc\\InfoItem</title>
<polygon fill="none" stroke="#000000" points="624.8875,-366 540.8875,-366 540.8875,-330 624.8875,-330 624.8875,-366"/>
<text text-anchor="start" x="548.8875" y="-351.2" font-family="Courier,monospace" font-size="11.00" fill="#000000">«abstract»</text>
<text text-anchor="start" x="555.3875" y="-339.2" font-family="Courier,monospace" font-size="11.00" fill="#000000">InfoItem</text>
</g>
<!-- \\Healthsvc\\SerializableData -->
<g id="node16" class="node">
<title>\\Healthsvc\\SerializableData</title>
<polygon fill="none" stroke="#000000" points="377.8875,-393 252.8875,-393 252.8875,-357 377.8875,-357 377.8875,-393"/>
<text text-anchor="start" x="281.3875" y="-378.2" font-family="Courier,monospace" font-size="11.00" fill="#000000">«abstract»</text>
<text text-anchor="start" x="260.8875" y="-366.2" font-family="Courier,monospace" font-size="11.00" fill="#000000">SerializableData</text>
</g>
<!-- \\Healthsvc\\InfoItem&#45;&gt;\\Healthsvc\\SerializableData -->
<g id="edge3" class="edge">
<title>\\Healthsvc\\InfoItem&#45;&gt;\\Healthsvc\\SerializableData</title>
<path fill="none" stroke="#000000" d="M540.7964,-352.2485C500,-356.3662 437.2819,-362.6966 388.3507,-367.6355"/>
<polygon fill="none" stroke="#000000" points="387.7294,-364.1803 378.1315,-368.667 388.4324,-371.1449 387.7294,-364.1803"/>
</g>
<!-- \\Healthsvc\\ResponseInterface -->
<g id="node23" class="node">
<title>\\Healthsvc\\ResponseInterface</title>
<polygon fill="none" stroke="#000000" points="648.3875,-420 517.3875,-420 517.3875,-384 648.3875,-384 648.3875,-420"/>
<text text-anchor="middle" x="582.8875" y="-399.2" font-family="Courier,monospace" font-size="11.00" fill="#000000">ResponseInterface</text>
</g>
<!-- \\Healthsvc\\Response&#45;&gt;\\Healthsvc\\ResponseInterface -->
<g id="edge4" class="edge">
<title>\\Healthsvc\\Response&#45;&gt;\\Healthsvc\\ResponseInterface</title>
<path fill="none" stroke="#000000" stroke-dasharray="1,5" d="M831.8844,-402C786.6914,-402 713.8785,-402 658.637,-402"/>
<polygon fill="none" stroke="#000000" points="658.5373,-398.5001 648.5373,-402 658.5373,-405.5001 658.5373,-398.5001"/>
</g>
<!-- \\Healthsvc\\ResponseDataInvalidException -->
<g id="node5" class="node">
<title>\\Healthsvc\\ResponseDataInvalidException</title>
<polygon fill="none" stroke="#000000" points="1294.8875,-312 1088.8875,-312 1088.8875,-276 1294.8875,-276 1294.8875,-312"/>
<text text-anchor="middle" x="1191.8875" y="-291.2" font-family="Courier,monospace" font-size="11.00" fill="#000000">ResponseDataInvalidException</text>
</g>
<!-- \\RuntimeException -->
<g id="node26" class="node">
<title>\\RuntimeException</title>
<ellipse fill="none" stroke="#000000" cx="582.8875" cy="-18" rx="79.0865" ry="18"/>
<text text-anchor="middle" x="582.8875" y="-14.3" font-family="Times,serif" font-size="14.00" fill="#c0c0c0">\RuntimeException</text>
</g>
<!-- \\Healthsvc\\ResponseDataInvalidException&#45;&gt;\\RuntimeException -->
<g id="edge5" class="edge">
<title>\\Healthsvc\\ResponseDataInvalidException&#45;&gt;\\RuntimeException</title>
<path fill="none" stroke="#000000" d="M1095.4664,-275.9836C1087.5164,-273.369 1079.7245,-270.3903 1072.3875,-267 1036.0767,-250.2214 1037.2875,-228.44 1000.3875,-213 947.9409,-191.0548 926.583,-215.3411 873.8875,-194"/>
</g>
<!-- \\Healthsvc\\HostSanityConfig -->
<g id="node7" class="node">
<title>\\Healthsvc\\HostSanityConfig</title>
<polygon fill="none" stroke="#000000" points="1254.3875,-582 1129.3875,-582 1129.3875,-546 1254.3875,-546 1254.3875,-582"/>
<text text-anchor="middle" x="1191.8875" y="-561.2" font-family="Courier,monospace" font-size="11.00" fill="#000000">HostSanityConfig</text>
</g>
<!-- \\Healthsvc\\ConfigController -->
<g id="node20" class="node">
<title>\\Healthsvc\\ConfigController</title>
<polygon fill="none" stroke="#000000" points="936.3875,-528 811.3875,-528 811.3875,-492 936.3875,-492 936.3875,-528"/>
<text text-anchor="start" x="839.8875" y="-513.2" font-family="Courier,monospace" font-size="11.00" fill="#000000">«abstract»</text>
<text text-anchor="start" x="819.3875" y="-501.2" font-family="Courier,monospace" font-size="11.00" fill="#000000">ConfigController</text>
</g>
<!-- \\Healthsvc\\HostSanityConfig&#45;&gt;\\Healthsvc\\ConfigController -->
<g id="edge6" class="edge">
<title>\\Healthsvc\\HostSanityConfig&#45;&gt;\\Healthsvc\\ConfigController</title>
<path fill="none" stroke="#000000" d="M1129.061,-553.3313C1076.5778,-544.4191 1001.7013,-531.7042 946.6269,-522.352"/>
<polygon fill="none" stroke="#000000" points="947.0284,-518.8701 936.5836,-520.6465 945.8565,-525.7713 947.0284,-518.8701"/>
</g>
<!-- \\Healthsvc\\HostSanityStatusData -->
<g id="node8" class="node">
<title>\\Healthsvc\\HostSanityStatusData</title>
<polygon fill="none" stroke="#000000" points="949.8875,-474 797.8875,-474 797.8875,-438 949.8875,-438 949.8875,-474"/>
<text text-anchor="middle" x="873.8875" y="-453.2" font-family="Courier,monospace" font-size="11.00" fill="#000000">HostSanityStatusData</text>
</g>
<!-- \\Healthsvc\\StatusData -->
<g id="node15" class="node">
<title>\\Healthsvc\\StatusData</title>
<polygon fill="none" stroke="#000000" points="624.8875,-474 540.8875,-474 540.8875,-438 624.8875,-438 624.8875,-474"/>
<text text-anchor="start" x="548.8875" y="-459.2" font-family="Courier,monospace" font-size="11.00" fill="#000000">«abstract»</text>
<text text-anchor="start" x="548.8875" y="-447.2" font-family="Courier,monospace" font-size="11.00" fill="#000000">StatusData</text>
</g>
<!-- \\Healthsvc\\HostSanityStatusData&#45;&gt;\\Healthsvc\\StatusData -->
<g id="edge7" class="edge">
<title>\\Healthsvc\\HostSanityStatusData&#45;&gt;\\Healthsvc\\StatusData</title>
<path fill="none" stroke="#000000" d="M797.8108,-456C746.7235,-456 680.7218,-456 635.4154,-456"/>
<polygon fill="none" stroke="#000000" points="635.2215,-452.5001 625.2215,-456 635.2215,-459.5001 635.2215,-452.5001"/>
</g>
<!-- \\Healthsvc\\RequestResponseController -->
<g id="node9" class="node">
<title>\\Healthsvc\\RequestResponseController</title>
<polygon fill="none" stroke="#000000" points="675.3875,-555 490.3875,-555 490.3875,-519 675.3875,-519 675.3875,-555"/>
<text text-anchor="start" x="548.8875" y="-540.2" font-family="Courier,monospace" font-size="11.00" fill="#000000">«abstract»</text>
<text text-anchor="start" x="498.3875" y="-528.2" font-family="Courier,monospace" font-size="11.00" fill="#000000">RequestResponseController</text>
</g>
<!-- \\Healthsvc\\ResponseBodyPrinterInterface -->
<g id="node21" class="node">
<title>\\Healthsvc\\ResponseBodyPrinterInterface</title>
<polygon fill="none" stroke="#000000" points="418.3875,-474 212.3875,-474 212.3875,-438 418.3875,-438 418.3875,-474"/>
<text text-anchor="middle" x="315.3875" y="-453.2" font-family="Courier,monospace" font-size="11.00" fill="#000000">ResponseBodyPrinterInterface</text>
</g>
<!-- \\Healthsvc\\RequestResponseController&#45;&gt;\\Healthsvc\\ResponseBodyPrinterInterface -->
<g id="edge8" class="edge">
<title>\\Healthsvc\\RequestResponseController&#45;&gt;\\Healthsvc\\ResponseBodyPrinterInterface</title>
<path fill="none" stroke="#000000" stroke-dasharray="1,5" d="M523.1883,-518.9228C482.1893,-506.5082 427.6348,-489.9889 384.7113,-476.9915"/>
<polygon fill="none" stroke="#000000" points="385.4895,-473.5703 374.9043,-474.0219 383.4608,-480.2699 385.4895,-473.5703"/>
</g>
<!-- \\Healthsvc\\HostSanityController -->
<g id="node10" class="node">
<title>\\Healthsvc\\HostSanityController</title>
<polygon fill="none" stroke="#000000" points="1267.8875,-420 1115.8875,-420 1115.8875,-384 1267.8875,-384 1267.8875,-420"/>
<text text-anchor="middle" x="1191.8875" y="-399.2" font-family="Courier,monospace" font-size="11.00" fill="#000000">HostSanityController</text>
</g>
<!-- \\Healthsvc\\RequestMethodNotAllowedException -->
<g id="node11" class="node">
<title>\\Healthsvc\\RequestMethodNotAllowedException</title>
<polygon fill="none" stroke="#000000" points="1308.3875,-366 1075.3875,-366 1075.3875,-330 1308.3875,-330 1308.3875,-366"/>
<text text-anchor="middle" x="1191.8875" y="-345.2" font-family="Courier,monospace" font-size="11.00" fill="#000000">RequestMethodNotAllowedException</text>
</g>
<!-- \\Healthsvc\\ResponseException -->
<g id="node19" class="node">
<title>\\Healthsvc\\ResponseException</title>
<polygon fill="none" stroke="#000000" points="939.3875,-258 808.3875,-258 808.3875,-222 939.3875,-222 939.3875,-258"/>
<text text-anchor="start" x="839.8875" y="-243.2" font-family="Courier,monospace" font-size="11.00" fill="#000000">«abstract»</text>
<text text-anchor="start" x="816.3875" y="-231.2" font-family="Courier,monospace" font-size="11.00" fill="#000000">ResponseException</text>
</g>
<!-- \\Healthsvc\\RequestMethodNotAllowedException&#45;&gt;\\Healthsvc\\ResponseException -->
<g id="edge9" class="edge">
<title>\\Healthsvc\\RequestMethodNotAllowedException&#45;&gt;\\Healthsvc\\ResponseException</title>
<path fill="none" stroke="#000000" d="M1095.4664,-329.9836C1087.5164,-327.369 1079.7245,-324.3903 1072.3875,-321 1036.0767,-304.2214 1036.7978,-283.5618 1000.3875,-267 984.5816,-259.8104 966.783,-254.5007 949.6375,-250.5913"/>
<polygon fill="none" stroke="#000000" points="950.1495,-247.1216 939.638,-248.4476 948.6821,-253.9661 950.1495,-247.1216"/>
</g>
<!-- \\Healthsvc\\HostSanityRequestResponseController -->
<g id="node12" class="node">
<title>\\Healthsvc\\HostSanityRequestResponseController</title>
<polygon fill="none" stroke="#000000" points="1000.3875,-582 747.3875,-582 747.3875,-546 1000.3875,-546 1000.3875,-582"/>
<text text-anchor="middle" x="873.8875" y="-561.2" font-family="Courier,monospace" font-size="11.00" fill="#000000">HostSanityRequestResponseController</text>
</g>
<!-- \\Healthsvc\\HostSanityRequestResponseController&#45;&gt;\\Healthsvc\\RequestResponseController -->
<g id="edge10" class="edge">
<title>\\Healthsvc\\HostSanityRequestResponseController&#45;&gt;\\Healthsvc\\RequestResponseController</title>
<path fill="none" stroke="#000000" d="M747.0972,-552.236C726.5264,-550.3273 705.4482,-548.3716 685.5444,-546.5249"/>
<polygon fill="none" stroke="#000000" points="685.8454,-543.0378 675.5648,-545.5989 685.1986,-550.0079 685.8454,-543.0378"/>
</g>
<!-- \\Healthsvc\\HostSanityBinDirNotExistException -->
<g id="node13" class="node">
<title>\\Healthsvc\\HostSanityBinDirNotExistException</title>
<polygon fill="none" stroke="#000000" points="1311.3875,-258 1072.3875,-258 1072.3875,-222 1311.3875,-222 1311.3875,-258"/>
<text text-anchor="middle" x="1191.8875" y="-237.2" font-family="Courier,monospace" font-size="11.00" fill="#000000">HostSanityBinDirNotExistException</text>
</g>
<!-- \\Healthsvc\\HostSanityBinDirNotExistException&#45;&gt;\\RuntimeException -->
<g id="edge11" class="edge">
<title>\\Healthsvc\\HostSanityBinDirNotExistException&#45;&gt;\\RuntimeException</title>
<path fill="none" stroke="#000000" d="M1072.0275,-222.9922C982.9067,-210.2947 876.2869,-194.9717 873.8875,-194"/>
<path fill="none" stroke="#000000" d="M873.8875,-194C772.3802,-152.8906 772.8346,-97.9781 675.3875,-48 665.7265,-43.0451 655.0817,-38.6864 644.5572,-34.937"/>
<polygon fill="none" stroke="#000000" points="645.5518,-31.5784 634.9573,-31.6654 643.2937,-38.2042 645.5518,-31.5784"/>
</g>
<!-- \\Healthsvc\\CommandInfoItem -->
<g id="node14" class="node">
<title>\\Healthsvc\\CommandInfoItem</title>
<polygon fill="none" stroke="#000000" points="932.8875,-366 814.8875,-366 814.8875,-330 932.8875,-330 932.8875,-366"/>
<text text-anchor="middle" x="873.8875" y="-345.2" font-family="Courier,monospace" font-size="11.00" fill="#000000">CommandInfoItem</text>
</g>
<!-- \\Healthsvc\\CommandInfoItem&#45;&gt;\\Healthsvc\\InfoItem -->
<g id="edge12" class="edge">
<title>\\Healthsvc\\CommandInfoItem&#45;&gt;\\Healthsvc\\InfoItem</title>
<path fill="none" stroke="#000000" d="M814.6486,-348C761.9446,-348 685.6075,-348 635.138,-348"/>
<polygon fill="none" stroke="#000000" points="635.0915,-344.5001 625.0915,-348 635.0914,-351.5001 635.0915,-344.5001"/>
</g>
<!-- \\Healthsvc\\StatusData&#45;&gt;\\Healthsvc\\SerializableData -->
<g id="edge13" class="edge">
<title>\\Healthsvc\\StatusData&#45;&gt;\\Healthsvc\\SerializableData</title>
<path fill="none" stroke="#000000" d="M540.4822,-443.7699C524.735,-439.1894 506.7307,-433.9064 490.3875,-429 454.9243,-418.3535 415.5125,-406.2189 383.0829,-396.1531"/>
<polygon fill="none" stroke="#000000" points="383.843,-392.7243 373.2548,-393.0996 381.7661,-399.4091 383.843,-392.7243"/>
</g>
<!-- \\JsonSerializable -->
<g id="node27" class="node">
<title>\\JsonSerializable</title>
<ellipse fill="none" stroke="#000000" cx="70.1938" cy="-375" rx="70.3881" ry="18"/>
<text text-anchor="middle" x="70.1938" y="-371.3" font-family="Times,serif" font-size="14.00" fill="#c0c0c0">\JsonSerializable</text>
</g>
<!-- \\Healthsvc\\SerializableData&#45;&gt;\\JsonSerializable -->
<g id="edge14" class="edge">
<title>\\Healthsvc\\SerializableData&#45;&gt;\\JsonSerializable</title>
<path fill="none" stroke="#000000" stroke-dasharray="1,5" d="M252.8804,-375C221.892,-375 184.0985,-375 150.9446,-375"/>
<polygon fill="none" stroke="#000000" points="150.8172,-371.5001 140.8171,-375 150.8171,-378.5001 150.8172,-371.5001"/>
</g>
<!-- \\Healthsvc\\CommandErrorInfoItem -->
<g id="node17" class="node">
<title>\\Healthsvc\\CommandErrorInfoItem</title>
<polygon fill="none" stroke="#000000" points="1267.8875,-474 1115.8875,-474 1115.8875,-438 1267.8875,-438 1267.8875,-474"/>
<text text-anchor="middle" x="1191.8875" y="-453.2" font-family="Courier,monospace" font-size="11.00" fill="#000000">CommandErrorInfoItem</text>
</g>
<!-- \\Healthsvc\\CommandErrorInfoItem&#45;&gt;\\Healthsvc\\CommandInfoItem -->
<g id="edge15" class="edge">
<title>\\Healthsvc\\CommandErrorInfoItem&#45;&gt;\\Healthsvc\\CommandInfoItem</title>
<path fill="none" stroke="#000000" d="M1115.7099,-443.8427C1100.962,-440.0939 1085.903,-435.2453 1072.3875,-429 1036.0767,-412.2214 1036.7978,-391.5618 1000.3875,-375 982.5454,-366.8843 962.1642,-361.1639 943.0496,-357.1491"/>
<polygon fill="none" stroke="#000000" points="943.6782,-353.7057 933.1895,-355.2014 942.3216,-360.573 943.6782,-353.7057"/>
</g>
<!-- \\Healthsvc\\ErrorInfoItem -->
<g id="node18" class="node">
<title>\\Healthsvc\\ErrorInfoItem</title>
<polygon fill="none" stroke="#000000" points="925.8875,-312 821.8875,-312 821.8875,-276 925.8875,-276 925.8875,-312"/>
<text text-anchor="middle" x="873.8875" y="-291.2" font-family="Courier,monospace" font-size="11.00" fill="#000000">ErrorInfoItem</text>
</g>
<!-- \\Healthsvc\\ErrorInfoItem&#45;&gt;\\Healthsvc\\InfoItem -->
<g id="edge16" class="edge">
<title>\\Healthsvc\\ErrorInfoItem&#45;&gt;\\Healthsvc\\InfoItem</title>
<path fill="none" stroke="#000000" d="M821.8626,-303.6541C769.0303,-313.458 687.6836,-328.5533 634.8676,-338.3542"/>
<polygon fill="none" stroke="#000000" points="634.2201,-334.9145 625.0265,-340.1804 635.4973,-341.797 634.2201,-334.9145"/>
</g>
<!-- \\Healthsvc\\ResponseException&#45;&gt;\\Healthsvc\\ResponseInterface -->
<g id="edge18" class="edge">
<title>\\Healthsvc\\ResponseException&#45;&gt;\\Healthsvc\\ResponseInterface</title>
<path fill="none" stroke="#000000" stroke-dasharray="1,5" d="M808.3131,-244.2644C787.4701,-248.0643 765.2223,-254.889 747.3875,-267 699.6624,-299.4086 721.886,-340.8547 675.3875,-375 670.1667,-378.8338 664.4091,-382.1256 658.3967,-384.9516"/>
<polygon fill="none" stroke="#000000" points="656.6255,-381.9005 648.7792,-389.0199 659.3527,-388.3474 656.6255,-381.9005"/>
</g>
<!-- \\Healthsvc\\ResponseException&#45;&gt;\\RuntimeException -->
<g id="edge17" class="edge">
<title>\\Healthsvc\\ResponseException&#45;&gt;\\RuntimeException</title>
<path fill="none" stroke="#000000" d="M808.2474,-234.7801C786.9229,-230.2984 764.3981,-222.2655 747.3875,-208 687.638,-157.8924 733.4552,-100.0475 675.3875,-48 668.811,-42.1053 661.0597,-37.367 652.8884,-33.5586"/>
<polygon fill="none" stroke="#000000" points="654.1006,-30.2718 643.5245,-29.6419 651.3994,-36.7297 654.1006,-30.2718"/>
</g>
<!-- \\Healthsvc\\StatusDataProviderInterface -->
<g id="node22" class="node">
<title>\\Healthsvc\\StatusDataProviderInterface</title>
<polygon fill="none" stroke="#000000" points="1291.3875,-204 1092.3875,-204 1092.3875,-168 1291.3875,-168 1291.3875,-204"/>
<text text-anchor="middle" x="1191.8875" y="-183.2" font-family="Courier,monospace" font-size="11.00" fill="#000000">StatusDataProviderInterface</text>
</g>
<!-- \\Healthsvc\\ResponseInterface&#45;&gt;\\Healthsvc\\ResponseBodyPrinterInterface -->
<g id="edge19" class="edge">
<title>\\Healthsvc\\ResponseInterface&#45;&gt;\\Healthsvc\\ResponseBodyPrinterInterface</title>
<path fill="none" stroke="#000000" d="M517.1071,-415.279C486.2725,-421.5036 448.8737,-429.0533 414.6949,-435.9529"/>
<polygon fill="none" stroke="#000000" points="413.7865,-432.5656 404.6769,-437.9752 415.1717,-439.4272 413.7865,-432.5656"/>
</g>
<!-- \\Healthsvc\\ConfigFileReaderTrait -->
<g id="node24" class="node">
<title>\\Healthsvc\\ConfigFileReaderTrait</title>
<polygon fill="none" stroke="#000000" points="1270.8875,-150 1112.8875,-150 1112.8875,-114 1270.8875,-114 1270.8875,-150"/>
<text text-anchor="middle" x="1191.8875" y="-129.2" font-family="Courier,monospace" font-size="11.00" fill="#000000">ConfigFileReaderTrait</text>
</g>
<!-- \\Healthsvc\\RequestBodyParserTrait -->
<g id="node25" class="node">
<title>\\Healthsvc\\RequestBodyParserTrait</title>
<polygon fill="none" stroke="#000000" points="1274.3875,-96 1109.3875,-96 1109.3875,-60 1274.3875,-60 1274.3875,-96"/>
<text text-anchor="middle" x="1191.8875" y="-75.2" font-family="Courier,monospace" font-size="11.00" fill="#000000">RequestBodyParserTrait</text>
</g>
</g>
</svg>
